HIERARCHY
ROOT ROOT
{
	OFFSET 0.000000 56.020000 -5.659234
	CHANNELS 6 Xposition Yposition Zposition Xrotation Yrotation Zrotation 
	JOINT C_spine0001_bind_JNT
	{
		OFFSET 0.000000 1.618999 0.000000
		CHANNELS 3 Xrotation Yrotation Zrotation
		JOINT C_spine0002_bind_JNT
		{
			OFFSET 0.000000 4.942001 0.000001
			CHANNELS 3 Xrotation Yrotation Zrotation
			JOINT C_spine0003_bind_JNT
			{
				OFFSET 0.000000 4.942001 -0.000000
				CHANNELS 3 Xrotation Yrotation Zrotation
				JOINT C_neck0001_bind_JNT
				{
					OFFSET 0.000000 17.026009 -0.000000
					CHANNELS 3 Xrotation Yrotation Zrotation
					JOINT C_neck0002_bind_JNT
					{
						OFFSET 0.000000 3.249985 0.000000
						CHANNELS 3 Xrotation Yrotation Zrotation
						JOINT C_head_bind_JNT
						{
							OFFSET 0.000000 5.278008 0.000000
							CHANNELS 3 Xrotation Yrotation Zrotation
							End Site
							{
								OFFSET 0.000000 0.000000 0.000000
							}
						}
					}
				}
				JOINT L_clavicle_bind_JNT
				{
					OFFSET 4.590000 12.067001 0.834000
					CHANNELS 3 Xrotation Yrotation Zrotation
					JOINT L_armUpper0001_bind_JNT
					{
						OFFSET 7.812635 0.512001 -3.452945
						CHANNELS 3 Xrotation Yrotation Zrotation
						JOINT L_armLower0001_bind_JNT
						{
							OFFSET 15.265892 -6.552116 -0.058157
							CHANNELS 3 Xrotation Yrotation Zrotation
							JOINT L_hand0001_bind_JNT
							{
								OFFSET 14.747667 -6.369995 5.049225
								CHANNELS 3 Xrotation Yrotation Zrotation
								End Site
								{
									OFFSET 0.000000 0.000000 0.000000
								}
							}
						}
					}
				}
				JOINT R_clavicle_bind_JNT
				{
					OFFSET -4.590000 12.067001 0.834000
					CHANNELS 3 Xrotation Yrotation Zrotation
					JOINT R_armUpper0001_bind_JNT
					{
						OFFSET -7.812635 0.512001 -3.452945
						CHANNELS 3 Xrotation Yrotation Zrotation
						JOINT R_armLower0001_bind_JNT
						{
							OFFSET -15.265890 -6.552124 -0.058160
							CHANNELS 3 Xrotation Yrotation Zrotation
							JOINT R_hand0001_bind_JNT
							{
								OFFSET -14.746784 -6.369629 5.048937
								CHANNELS 3 Xrotation Yrotation Zrotation
								End Site
								{
									OFFSET 0.000000 0.000000 0.000000
								}
							}
						}
					}
				}
			}
		}
	}
	JOINT C_pelvis0001_bind_JNT
	{
		OFFSET -0.000000 0.000000 0.000000
		CHANNELS 3 Xrotation Yrotation Zrotation
		JOINT L_legUpper0001_bind_JNT
		{
			OFFSET 6.599999 -6.027000 0.539000
			CHANNELS 3 Xrotation Yrotation Zrotation
			JOINT L_legLower0001_bind_JNT
			{
				OFFSET -0.140713 -19.187443 0.040261
				CHANNELS 3 Xrotation Yrotation Zrotation
				JOINT L_foot0001_bind_JNT
				{
					OFFSET -0.132215 -18.028637 -1.138370
					CHANNELS 3 Xrotation Yrotation Zrotation
					JOINT L_foot0002_bind_JNT
					{
						OFFSET 0.007014 -4.693133 9.886524
						CHANNELS 3 Xrotation Yrotation Zrotation
						End Site
						{
							OFFSET 0.000000 0.000000 0.000000
						}
					}
				}
			}
		}
		JOINT R_legUpper0001_bind_JNT
		{
			OFFSET -6.599999 -6.027000 0.539000
			CHANNELS 3 Xrotation Yrotation Zrotation
			JOINT R_legLower0001_bind_JNT
			{
				OFFSET 0.140710 -19.187164 0.040550
				CHANNELS 3 Xrotation Yrotation Zrotation
				JOINT R_foot0001_bind_JNT
				{
					OFFSET 0.132215 -18.028633 -1.138362
					CHANNELS 3 Xrotation Yrotation Zrotation
					JOINT R_foot0002_bind_JNT
					{
						OFFSET -0.007014 -4.693128 9.886505
						CHANNELS 3 Xrotation Yrotation Zrotation
						End Site
						{
							OFFSET 0.000000 0.000000 0.000000
						}
					}
				}
			}
		}
	}
}
MOTION
Frames: 14
Frame Time: 0.033333
0.000000 49.896713 0.000000 0.034824 -10.023331 -0.007029 12.489437 9.360596 0.161062 -3.077577 2.248990 0.184757 4.138721 3.037174 0.197898 18.788322 -2.887342 2.367550 0.003407 -0.637618 0.431622 -1.029668 -5.888922 4.656499 13.048708 -3.723746 19.220087 -16.896032 -5.437939 -73.518753 0.709483 -6.679140 -11.029234 -1.711331 -11.299376 -31.272829 16.342495 -14.942438 -11.335129 -24.160873 -0.521996 76.598625 2.447661 -5.030273 2.728937 -2.466460 15.008394 29.073706 13.617153 5.055017 -1.150010 -19.993570 6.028052 -0.046556 12.981682 -0.003782 -0.124042 -6.754472 7.661980 0.400683 -0.984803 0.067352 -0.192759 -14.473938 -11.498073 -6.775505 10.285925 -4.002202 3.111325 -7.280643 -10.138677 1.545797 -1.891759 -0.096988 0.657171 
0.003621 49.962627 0.027030 0.024750 -8.594913 -0.025149 12.853581 8.296121 0.337460 -3.554949 2.370283 0.242844 4.636006 2.848596 0.298015 19.346622 -2.784632 2.821965 0.023103 -0.543663 0.142199 0.189585 -5.503221 5.535116 13.038770 -4.460241 18.584396 -15.607606 -4.812768 -72.564186 -0.578682 -6.540843 -11.248446 -1.510196 -10.908081 -32.179737 16.530113 -15.894696 -10.978734 -25.023445 0.055877 76.704666 2.212224 -5.366100 2.562612 -1.271886 15.558128 29.637920 14.299073 4.264060 -1.045149 -21.637243 7.317874 0.461353 14.596063 -1.127012 -0.350165 -7.332907 7.519431 0.963012 -1.105884 -0.052106 -0.033379 -15.638588 -11.413833 -5.697613 9.205824 -3.149527 2.688465 -6.404152 -10.877688 0.851035 -2.031253 -0.595420 0.066877 
0.267536 49.932034 -0.000087 0.012219 -7.985085 -0.028750 13.261758 8.435325 -0.127547 -3.411283 2.242021 0.606618 4.907989 2.651590 0.237427 19.576353 -2.850701 3.294177 -0.033568 -0.075711 0.105920 1.724517 -5.751624 6.136087 13.033317 -3.539531 18.958982 -15.535681 -4.448405 -72.117058 -0.897402 -6.709260 -11.647654 -1.156258 -10.156554 -32.490540 16.252567 -15.468016 -10.551413 -24.310135 0.177572 76.057358 0.405135 -5.602907 2.828494 -0.551205 14.899092 30.280508 14.219053 4.634719 -1.228805 -21.748438 7.890180 0.202025 15.297174 -1.058177 -0.567933 -8.056744 7.316329 1.785694 -1.362559 -0.141569 -0.042626 -15.500378 -12.037812 -6.644290 9.014575 -3.648357 3.349459 -6.073443 -11.113125 0.822321 -1.935662 -0.401335 0.281992 
0.582900 49.894196 0.047844 0.030800 -7.546092 -0.040041 13.370484 8.769211 -0.087173 -3.313755 2.032593 0.588258 4.907021 2.423935 0.562471 20.007898 -2.946090 3.291275 -0.063542 -0.100296 -0.016857 1.957467 -5.670939 5.985703 13.276723 -2.904138 18.234446 -15.452160 -4.380133 -71.927315 -0.772103 -5.894921 -11.572488 -1.455107 -10.573863 -32.469803 16.116575 -14.937401 -11.098555 -23.460459 -0.031221 75.254890 -0.716681 -5.747153 3.635841 -0.492127 15.194263 30.176191 14.396863 5.058003 -1.661133 -22.330524 7.916154 0.521672 15.804579 -0.475532 -0.611856 -8.211721 7.362466 1.826862 -1.037510 -0.283894 -0.228815 -16.320057 -12.161579 -6.842644 9.843904 -3.826780 3.621166 -5.815591 -11.460682 1.082136 -2.133905 -0.324584 0.215230 
0.876564 49.925205 -0.041737 0.024064 -7.304118 -0.030254 14.112668 9.005135 -0.248465 -3.245964 2.034031 0.633708 4.864880 2.375729 0.483861 20.333366 -3.070988 3.325017 -0.095454 0.022783 0.144288 2.584738 -6.296215 6.021680 13.461185 -2.603302 18.434708 -15.159779 -4.140471 -71.406837 -1.509597 -5.806036 -12.135777 -1.241844 -10.545851 -32.505665 16.044558 -14.708277 -11.086239 -22.963785 -0.188774 74.351578 -1.645967 -5.867963 3.917011 -0.459915 15.490029 30.596336 14.924390 5.376416 -1.775720 -23.091591 8.236651 1.023954 16.740318 -0.106430 -1.004224 -8.828703 7.795465 1.820607 -1.336285 -0.229447 -0.289425 -16.971359 -12.152150 -7.260925 9.581994 -3.903073 3.757313 -5.295942 -11.777842 1.062051 -2.069842 -0.413314 0.228548 
1.110193 49.944263 -0.096697 0.024292 -6.616518 -0.033685 14.558332 8.896576 -0.228677 -3.371137 2.117745 0.613018 5.053994 2.298114 0.540189 20.437914 -2.900660 3.459586 -0.034804 -0.262638 0.068378 2.718273 -6.242871 5.953762 13.531196 -2.557892 18.309385 -15.142166 -3.982630 -70.624046 -1.897066 -5.181643 -12.520323 -1.178768 -10.899326 -32.532955 16.060619 -14.891008 -11.057947 -22.885584 -0.307763 73.793808 -1.756914 -5.931044 3.940265 -0.605365 15.473310 30.554413 15.231380 5.263056 -1.855122 -23.951204 8.326906 1.260727 17.669834 0.047878 -1.154691 -9.155636 7.831421 1.849893 -1.435912 -0.181488 -0.274762 -17.461952 -11.940987 -7.593946 9.951639 -3.905670 3.998299 -5.330509 -12.046154 1.262017 -2.097643 -0.417289 0.189011 
1.350559 49.866055 -0.344929 0.026657 -6.129733 -0.042927 15.340189 8.795281 -0.430373 -2.987459 2.115417 0.504851 5.364031 2.444706 0.588833 20.549767 -3.163355 3.413911 -0.211325 -0.151206 0.126121 2.745494 -6.441227 6.131419 13.485877 -2.375515 18.142231 -14.915833 -3.242550 -69.552910 -2.517135 -5.047983 -12.813356 -1.180278 -10.679415 -32.847416 15.493795 -14.721688 -10.864933 -22.724117 -0.508056 72.742699 -2.080805 -5.735132 3.850315 -0.825205 15.459683 30.773563 16.022316 5.064817 -1.929767 -25.865694 8.673987 1.453159 19.013458 0.243738 -1.504182 -9.464315 7.810935 2.170870 -1.473943 0.058078 -0.193443 -18.637577 -11.993188 -8.189512 10.833892 -3.821275 4.078424 -5.511488 -12.087083 1.602976 -2.410125 -0.588293 0.433533 
1.619990 49.847878 -0.459825 0.033267 -5.687418 -0.028450 16.227345 8.756771 -0.769816 -2.908885 2.171566 0.437213 5.406663 2.406825 0.590300 20.540068 -3.208142 3.760856 -0.093403 0.066764 -0.137240 3.223876 -6.795975 6.430034 13.359221 -2.185448 17.995403 -14.893199 -2.813929 -68.374237 -3.051184 -4.409533 -13.244293 -1.056548 -10.695217 -32.900162 15.263378 -14.545270 -10.899163 -22.280165 -1.073155 71.901947 -2.010202 -5.213417 3.683514 -0.976676 15.209579 30.973473 16.741579 4.964543 -2.033768 -27.528440 9.076063 1.510062 20.274218 0.393501 -1.577330 -9.694300 7.835685 2.211605 -1.684066 -0.082120 -0.041603 -20.126404 -11.626717 -8.697814 11.997622 -3.816867 4.211614 -5.708536 -12.561126 1.943417 -2.357878 -0.487363 0.383373 
1.988256 49.812286 -0.490127 0.030951 -5.273694 -0.035013 17.358704 8.785610 -1.165866 -2.833479 2.231213 0.419503 5.521771 2.463018 0.647756 20.675173 -3.453170 3.811338 -0.087829 -0.028532 -0.079457 3.541804 -6.976693 6.452102 13.383079 -2.138460 17.603411 -15.008015 -2.171356 -66.953568 -3.690924 -3.847339 -13.632508 -0.866654 -10.647248 -33.068916 14.815631 -14.490952 -11.190224 -20.744278 -2.054043 70.337654 -2.168136 -3.867656 4.216322 -0.965666 15.445068 31.305517 17.553417 5.054105 -2.383235 -29.544582 9.643786 2.005600 21.780518 0.257441 -2.018618 -10.092372 7.950598 2.585929 -1.797823 0.065857 0.048084 -21.619335 -11.960927 -9.147982 13.261383 -3.786745 4.058463 -5.906451 -12.703350 2.473582 -2.462539 -0.784697 0.525345 
2.370547 49.708790 -0.512866 0.028503 -4.770484 -0.029273 18.608017 9.069680 -1.726909 -2.787018 2.137675 0.353536 5.768673 2.464716 0.515875 20.673464 -3.461591 4.110415 -0.145745 -0.252018 -0.158416 3.994370 -6.975395 6.682610 13.213672 -1.679101 17.597553 -15.432786 -1.959292 -65.924973 -4.278557 -3.618115 -13.979484 -0.957206 -10.603599 -32.851124 14.563933 -14.719653 -11.020226 -20.077698 -2.805279 68.685745 -2.265967 -2.302709 4.898355 -0.793992 15.404953 31.510008 18.499043 5.263397 -2.975482 -31.731077 10.087779 2.385171 23.470236 0.154664 -2.172133 -10.577553 7.850216 3.018156 -2.013216 0.007633 0.059882 -23.191948 -12.386334 -9.708976 14.444685 -3.795190 4.150956 -6.014433 -12.944263 3.235870 -2.520563 -0.657677 0.508933 
2.692558 49.656570 -0.502779 0.045648 -4.009931 -0.047394 19.945646 8.878442 -2.551976 -2.870092 2.236151 0.255465 6.098958 2.551594 0.568236 20.638124 -3.672719 4.302485 -0.145725 -0.293959 -0.079704 4.475367 -7.520491 7.157295 13.045463 -1.173340 17.414988 -15.868671 -1.584393 -64.807449 -4.914011 -3.400350 -14.039411 -0.542008 -10.550437 -33.029739 13.735540 -14.918835 -11.282357 -18.446880 -4.265614 66.719589 -2.136948 0.098768 5.962785 -0.786095 15.336246 32.096207 19.668785 5.181281 -3.536640 -34.123875 10.778834 3.070147 24.906145 -0.099777 -2.341791 -10.819214 8.163486 3.046891 -2.330446 -0.050934 0.465485 -24.870800 -12.475775 -10.100670 15.583648 -4.091121 4.239130 -5.775034 -13.200910 3.931154 -2.791198 -0.735804 0.778198 
2.993391 49.565319 -0.424110 0.021892 -3.557977 -0.023120 21.347475 9.018233 -3.498270 -2.785387 2.178463 0.158705 6.329880 2.598538 0.244744 20.436539 -3.776380 4.678114 -0.312826 -0.154234 -0.249440 5.080907 -7.720507 7.237096 12.567990 -0.840475 17.202288 -15.972195 -1.572500 -63.553726 -5.590326 -3.320968 -13.991590 -0.792050 -10.385667 -33.315353 13.426592 -15.060527 -11.033743 -17.681286 -5.236756 65.221733 -2.342130 1.994853 6.571282 -0.770340 15.095531 32.524433 20.783106 5.330130 -3.958764 -36.013668 11.557503 3.287485 26.310163 -0.282270 -2.404979 -11.388784 8.335473 3.263977 -2.678884 -0.097070 0.638842 -26.740587 -12.605291 -11.022418 17.028482 -4.566175 4.653296 -5.440117 -13.033264 4.775687 -3.085455 -0.867870 0.795267 
3.269850 49.375801 -0.354276 0.045301 -2.945023 -0.042586 22.488390 8.971841 -4.683205 -2.686641 2.166075 -0.049567 6.515450 2.502056 0.172643 20.455502 -3.829816 4.799790 -0.093629 -0.211375 -0.284165 5.439928 -7.895571 7.946652 12.443106 -0.663057 16.907429 -16.911579 -1.362651 -62.356789 -6.428577 -2.589614 -13.955153 -0.529381 -10.358691 -33.448616 12.683234 -15.149135 -10.983685 -16.178814 -6.348011 63.231171 -2.671818 4.260871 7.990503 -0.845092 14.678830 33.004520 21.689478 5.290500 -4.609709 -37.713699 12.280703 3.936624 27.404608 -0.404754 -2.500412 -11.630422 8.694794 3.429945 -3.018441 -0.101727 0.869274 -28.552351 -12.492875 -11.816923 19.849007 -4.551434 4.963354 -5.597145 -13.204460 5.986636 -3.833520 -0.927104 0.942363 
3.547849 49.225239 -0.232959 0.037853 -2.440167 -0.033857 23.763704 8.781117 -6.012273 -2.743698 1.953942 -0.236551 6.707315 2.370608 -0.132380 20.536625 -3.577767 4.971430 -0.327616 -0.286387 -0.243868 6.044601 -7.673873 8.454652 12.347593 -0.252134 16.569628 -18.000761 -1.732386 -60.890430 -7.316783 -2.010353 -13.749979 -0.807355 -10.393533 -33.266361 12.471383 -15.274995 -10.590524 -15.445347 -6.980978 61.240707 -3.875879 5.970904 9.633899 -1.113552 14.503056 33.362759 22.508772 5.642840 -5.369827 -39.108807 12.784237 4.424928 28.573771 -0.455090 -2.812436 -12.397364 8.738938 4.039360 -2.973452 -0.117323 0.666401 -31.104820 -12.592214 -13.509949 23.245455 -4.449404 5.357656 -4.089981 -12.817803 7.522057 -5.766645 -1.008245 1.347602 
